<svg version="1.1" id="Layer_1" xmlns="http://www.w3.org/2000/svg" xmlns:xlink="http://www.w3.org/1999/xlink" x="0px" y="0px"
	 width="100%" viewBox="0 0 540 540" enable-background="new 0 0 540 540" xml:space="preserve">
<path fill="transparent" opacity="1.000000" stroke="none" 
	d="
M319.000000,541.000000 
	C212.691147,541.000000 106.882294,541.000000 1.036723,541.000000 
	C1.036723,361.066132 1.036723,181.132248 1.036723,1.099181 
	C180.892181,1.099181 360.784454,1.099181 540.838379,1.099181 
	C540.838379,180.999878 540.838379,360.999939 540.838379,541.000000 
	C467.132202,541.000000 393.316101,541.000000 319.000000,541.000000 
M272.500000,98.000000 
	C214.340805,98.000015 156.181610,97.998108 98.022415,98.001526 
	C84.896996,98.002296 76.001678,106.921707 76.001373,120.081528 
	C75.998993,221.735092 76.132637,323.389099 75.809669,425.041626 
	C75.774620,436.076263 86.796158,447.244415 98.167877,447.201202 
	C191.821121,446.845123 285.476318,447.000000 379.130920,447.000000 
	C381.275574,447.000000 383.420258,447.000000 385.531097,447.000000 
	C390.572632,464.141785 398.420227,478.959686 412.472412,490.078430 
	C424.840698,499.864929 438.699860,505.747681 454.329803,506.911530 
	C470.871460,508.143311 486.452972,504.440765 500.650879,495.698730 
	C524.209961,481.192810 536.731567,459.671631 537.727356,432.401703 
	C538.407043,413.788330 532.740479,396.605743 520.506958,381.666595 
	C507.954285,366.337677 492.049957,357.327850 472.895721,354.291046 
	C467.551300,353.443695 466.923187,351.709045 466.929047,347.229370 
	C467.028229,271.572571 466.925903,195.915482 467.089172,120.258904 
	C467.110687,110.283646 458.003418,97.723770 444.976593,97.819328 
	C387.820343,98.238602 330.659302,98.000015 272.500000,98.000000 
z"/>
<path fill="#6D6D6D" opacity="1.000000" stroke="none" 
	d="
M273.000000,98.000000 
	C330.659302,98.000015 387.820343,98.238602 444.976593,97.819328 
	C458.003418,97.723770 467.110687,110.283646 467.089172,120.258904 
	C466.925903,195.915482 467.028229,271.572571 466.929047,347.229370 
	C466.923187,351.709045 467.551300,353.443695 472.895721,354.291046 
	C492.049957,357.327850 507.954285,366.337677 520.506958,381.666595 
	C532.740479,396.605743 538.407043,413.788330 537.727356,432.401703 
	C536.731567,459.671631 524.209961,481.192810 500.650879,495.698730 
	C486.452972,504.440765 470.871460,508.143311 454.329803,506.911530 
	C438.699860,505.747681 424.840698,499.864929 412.472412,490.078430 
	C398.420227,478.959686 390.572632,464.141785 385.531097,447.000000 
	C383.420258,447.000000 381.275574,447.000000 379.130920,447.000000 
	C285.476318,447.000000 191.821121,446.845123 98.167877,447.201202 
	C86.796158,447.244415 75.774620,436.076263 75.809669,425.041626 
	C76.132637,323.389099 75.998993,221.735092 76.001373,120.081528 
	C76.001678,106.921707 84.896996,98.002296 98.022415,98.001526 
	C156.181610,97.998108 214.340805,98.000015 273.000000,98.000000 
M400.973816,381.550385 
	C414.676727,365.745056 431.565765,355.757019 452.999878,353.558868 
	C452.999878,351.488556 452.999939,349.684296 452.999908,347.880066 
	C452.999908,273.067413 453.001312,198.254761 452.997864,123.442116 
	C452.997467,115.122940 449.909149,112.002716 441.666687,112.002464 
	C328.198059,111.999054 214.729401,111.999008 101.260765,112.002640 
	C93.252655,112.002899 90.004242,115.173645 90.003807,123.014793 
	C89.998360,222.653915 89.998428,322.293030 90.003685,421.932159 
	C90.004105,429.820892 93.166267,432.995605 101.028915,432.996094 
	C193.503357,433.001831 285.977814,433.001068 378.452240,432.989288 
	C380.209778,432.989075 381.967316,432.833771 383.312134,432.770294 
	C384.092377,426.071503 384.371460,419.933411 385.592010,413.988586 
	C388.007019,402.226135 393.293365,391.674469 400.973816,381.550385 
M399.418945,417.113586 
	C399.325256,425.463165 397.786194,434.103210 399.395386,442.110565 
	C405.421356,472.095490 433.185120,495.853302 467.295715,492.137787 
	C481.689209,490.569946 494.015656,484.930603 504.135193,475.137878 
	C516.967529,462.719849 523.132874,447.362732 523.167969,429.108002 
	C523.215942,404.186157 505.952576,379.083344 481.156219,371.022461 
	C461.560028,364.652039 442.599915,366.734406 425.479156,378.394348 
	C412.089935,387.513000 403.282532,400.267426 399.418945,417.113586 
z"/>
<path fill="transparent" opacity="1.000000" stroke="none" 
	d="
M400.727417,381.811462 
	C393.293365,391.674469 388.007019,402.226135 385.592010,413.988586 
	C384.371460,419.933411 384.092377,426.071503 383.312134,432.770294 
	C381.967316,432.833771 380.209778,432.989075 378.452240,432.989288 
	C285.977814,433.001068 193.503357,433.001831 101.028915,432.996094 
	C93.166267,432.995605 90.004105,429.820892 90.003685,421.932159 
	C89.998428,322.293030 89.998360,222.653915 90.003807,123.014793 
	C90.004242,115.173645 93.252655,112.002899 101.260765,112.002640 
	C214.729401,111.999008 328.198059,111.999054 441.666687,112.002464 
	C449.909149,112.002716 452.997467,115.122940 452.997864,123.442116 
	C453.001312,198.254761 452.999908,273.067413 452.999908,347.880066 
	C452.999939,349.684296 452.999878,351.488556 452.999878,353.558868 
	C431.565765,355.757019 414.676727,365.745056 400.727417,381.811462 
M424.000000,258.500000 
	C424.000000,219.431732 424.000000,180.363449 424.000000,141.347168 
	C321.915924,141.347168 220.689865,141.347168 119.451431,141.347168 
	C119.451431,209.378815 119.451431,277.062286 119.451431,344.999176 
	C121.228531,344.999176 122.554169,344.999176 123.879814,344.999176 
	C222.021271,344.999268 320.162781,344.965149 418.304016,345.101410 
	C423.169586,345.108185 424.107452,343.355286 424.080627,338.979095 
	C423.918030,312.486877 423.999847,285.993195 424.000000,258.500000 
z"/>
<path fill="transparent" opacity="1.000000" stroke="none" 
	d="
M399.633850,416.744781 
	C403.282532,400.267426 412.089935,387.513000 425.479156,378.394348 
	C442.599915,366.734406 461.560028,364.652039 481.156219,371.022461 
	C505.952576,379.083344 523.215942,404.186157 523.167969,429.108002 
	C523.132874,447.362732 516.967529,462.719849 504.135193,475.137878 
	C494.015656,484.930603 481.689209,490.569946 467.295715,492.137787 
	C433.185120,495.853302 405.421356,472.095490 399.395386,442.110565 
	C397.786194,434.103210 399.325256,425.463165 399.633850,416.744781 
M467.000000,423.495056 
	C467.000000,413.769897 467.000000,404.044739 467.000000,394.335480 
	C461.949860,394.335480 457.713135,394.335480 453.404602,394.335480 
	C453.404602,409.337555 453.404602,424.000732 453.404602,438.664673 
	C458.049835,438.664673 462.286591,438.664673 467.000000,438.664673 
	C467.000000,433.723663 467.000000,429.108093 467.000000,423.495056 
M453.000031,462.396606 
	C453.000031,464.476349 453.000031,466.556061 453.000031,468.691925 
	C458.008911,468.691925 462.238464,468.691925 466.606934,468.691925 
	C466.606934,462.370697 466.606934,456.364319 466.606934,450.312988 
	C461.980957,450.312988 457.751160,450.312988 453.000000,450.312988 
	C453.000000,454.217041 453.000000,457.823486 453.000031,462.396606 
z"/>
<path fill="#6D6D6D" opacity="1.000000" stroke="none" 
	d="
M424.000000,259.000000 
	C423.999847,285.993195 423.918030,312.486877 424.080627,338.979095 
	C424.107452,343.355286 423.169586,345.108185 418.304016,345.101410 
	C320.162781,344.965149 222.021271,344.999268 123.879814,344.999176 
	C122.554169,344.999176 121.228531,344.999176 119.451431,344.999176 
	C119.451431,277.062286 119.451431,209.378815 119.451431,141.347168 
	C220.689865,141.347168 321.915924,141.347168 424.000000,141.347168 
	C424.000000,180.363449 424.000000,219.431732 424.000000,259.000000 
M268.517792,278.035645 
	C273.808197,269.799164 279.098572,261.562683 284.593719,253.007431 
	C285.185608,253.762207 285.523712,254.127029 285.787628,254.539337 
	C300.931305,278.198730 316.120728,301.829193 331.147034,325.562927 
	C333.232666,328.857117 335.537567,330.140930 339.518646,330.100586 
	C360.676331,329.886383 381.837341,329.999847 402.997192,329.999847 
	C404.907166,329.999847 406.817169,329.999847 408.635986,329.999847 
	C408.635986,271.225494 408.635986,213.327362 408.635986,155.456085 
	C316.597351,155.456085 224.923431,155.456085 133.378967,155.456085 
	C133.378967,213.812180 133.378967,271.711426 133.378967,329.999939 
	C135.729523,329.999939 137.737244,329.767181 139.671234,330.045898 
	C144.456787,330.735657 147.493896,329.059418 149.974045,324.718536 
	C154.370193,317.024231 159.448868,309.720398 164.228516,302.244598 
	C175.911087,283.972107 187.556137,265.675476 199.278473,247.428482 
	C204.060928,239.984100 209.004242,232.643036 214.140488,224.851273 
	C216.012527,227.639359 217.570358,229.871552 219.039185,232.160873 
	C231.285568,251.248245 243.561340,270.317108 255.707230,289.468292 
	C257.827423,292.811340 259.265076,292.957489 261.271027,289.482300 
	C263.404327,285.786438 265.814545,282.250427 268.517792,278.035645 
M185.894455,295.362640 
	C178.667679,306.636108 171.440918,317.909546 163.886047,329.694824 
	C215.040466,329.694824 265.082733,329.694824 315.532715,329.694824 
	C314.978882,328.094849 314.776581,326.738068 314.103027,325.681824 
	C305.442352,312.100525 296.743225,298.543488 287.986023,285.024200 
	C285.343750,280.945099 284.098297,280.962799 281.385254,285.101776 
	C273.828796,296.629791 266.350983,308.209351 258.494263,320.304047 
	C243.639114,297.169281 229.074509,274.487000 214.181198,251.292801 
	C204.471786,266.287354 195.285706,280.473724 185.894455,295.362640 
z"/>
<path fill="#6D6D6D" opacity="1.000000" stroke="none" 
	d="
M467.000000,423.993805 
	C467.000000,429.108093 467.000000,433.723663 467.000000,438.664673 
	C462.286591,438.664673 458.049835,438.664673 453.404602,438.664673 
	C453.404602,424.000732 453.404602,409.337555 453.404602,394.335480 
	C457.713135,394.335480 461.949860,394.335480 467.000000,394.335480 
	C467.000000,404.044739 467.000000,413.769897 467.000000,423.993805 
z"/>
<path fill="#6D6D6D" opacity="1.000000" stroke="none" 
	d="
M453.000000,461.913269 
	C453.000000,457.823486 453.000000,454.217041 453.000000,450.312988 
	C457.751160,450.312988 461.980957,450.312988 466.606934,450.312988 
	C466.606934,456.364319 466.606934,462.370697 466.606934,468.691925 
	C462.238464,468.691925 458.008911,468.691925 453.000031,468.691925 
	C453.000031,466.556061 453.000031,464.476349 453.000000,461.913269 
z"/>
<path fill="transparent" opacity="1.000000" stroke="none" 
	d="
M268.310822,278.340149 
	C265.814545,282.250427 263.404327,285.786438 261.271027,289.482300 
	C259.265076,292.957489 257.827423,292.811340 255.707230,289.468292 
	C243.561340,270.317108 231.285568,251.248245 219.039185,232.160873 
	C217.570358,229.871552 216.012527,227.639359 214.140488,224.851273 
	C209.004242,232.643036 204.060928,239.984100 199.278473,247.428482 
	C187.556137,265.675476 175.911087,283.972107 164.228516,302.244598 
	C159.448868,309.720398 154.370193,317.024231 149.974045,324.718536 
	C147.493896,329.059418 144.456787,330.735657 139.671234,330.045898 
	C137.737244,329.767181 135.729523,329.999939 133.378967,329.999939 
	C133.378967,271.711426 133.378967,213.812180 133.378967,155.456085 
	C224.923431,155.456085 316.597351,155.456085 408.635986,155.456085 
	C408.635986,213.327362 408.635986,271.225494 408.635986,329.999847 
	C406.817169,329.999847 404.907166,329.999847 402.997192,329.999847 
	C381.837341,329.999847 360.676331,329.886383 339.518646,330.100586 
	C335.537567,330.140930 333.232666,328.857117 331.147034,325.562927 
	C316.120728,301.829193 300.931305,278.198730 285.787628,254.539337 
	C285.523712,254.127029 285.185608,253.762207 284.593719,253.007431 
	C279.098572,261.562683 273.808197,269.799164 268.310822,278.340149 
M352.763062,257.658478 
	C374.075256,252.150497 384.954315,234.353775 379.985809,212.980331 
	C376.735840,198.999390 360.929260,183.965897 339.302399,187.951508 
	C314.311279,192.557114 303.207520,220.679291 315.907379,241.247101 
	C324.079865,254.482635 336.594055,259.522552 352.763062,257.658478 
z"/>
<path fill="transparent" opacity="1.000000" stroke="none" 
	d="
M185.997040,295.011353 
	C195.285706,280.473724 204.471786,266.287354 214.181198,251.292801 
	C229.074509,274.487000 243.639114,297.169281 258.494263,320.304047 
	C266.350983,308.209351 273.828796,296.629791 281.385254,285.101776 
	C284.098297,280.962799 285.343750,280.945099 287.986023,285.024200 
	C296.743225,298.543488 305.442352,312.100525 314.103027,325.681824 
	C314.776581,326.738068 314.978882,328.094849 315.532715,329.694824 
	C265.082733,329.694824 215.040466,329.694824 163.886047,329.694824 
	C171.440918,317.909546 178.667679,306.636108 185.997040,295.011353 
z"/>
<path fill="#6D6D6D" opacity="1.000000" stroke="none" 
	d="
M352.338928,257.785522 
	C336.594055,259.522552 324.079865,254.482635 315.907379,241.247101 
	C303.207520,220.679291 314.311279,192.557114 339.302399,187.951508 
	C360.929260,183.965897 376.735840,198.999390 379.985809,212.980331 
	C384.954315,234.353775 374.075256,252.150497 352.338928,257.785522 
M336.921570,241.911331 
	C342.261963,243.786560 347.431976,244.811523 353.149536,242.539932 
	C362.382965,238.871490 368.136627,230.034698 366.980011,219.999908 
	C365.877014,210.430283 356.811005,202.005081 346.599548,201.059982 
	C339.170532,200.372406 328.708710,207.646606 326.024109,215.366226 
	C322.517029,225.451065 325.860352,234.070969 336.921570,241.911331 
z"/>
<path fill="transparent" opacity="1.000000" stroke="none" 
	d="
M336.563538,241.763840 
	C325.860352,234.070969 322.517029,225.451065 326.024109,215.366226 
	C328.708710,207.646606 339.170532,200.372406 346.599548,201.059982 
	C356.811005,202.005081 365.877014,210.430283 366.980011,219.999908 
	C368.136627,230.034698 362.382965,238.871490 353.149536,242.539932 
	C347.431976,244.811523 342.261963,243.786560 336.563538,241.763840 
z"/>
</svg>