<svg version="1.1" id="Layer_1" xmlns="http://www.w3.org/2000/svg" xmlns:xlink="http://www.w3.org/1999/xlink" x="0px" y="0px"
	 width="100%" viewBox="0 0 540 540" enable-background="new 0 0 540 540" xml:space="preserve">
<path fill="#000000" opacity="1.000000" stroke="none" 
	d="
M39.000000,1.000000 
	C206.287247,1.000000 373.574493,1.000000 540.930908,1.000000 
	C540.930908,180.904327 540.930908,360.808716 540.930908,541.000000 
	C373.975189,541.000000 206.950241,541.000000 39.173790,540.703186 
	C39.799244,539.296570 41.056828,537.976685 42.574356,537.114258 
	C48.298065,533.861328 54.163815,530.857300 59.872467,527.579102 
	C79.668503,516.211304 99.382607,504.700531 119.201546,493.373047 
	C136.641113,483.405457 154.220535,473.682709 171.663651,463.721313 
	C193.717789,451.126709 215.668716,438.351349 237.716476,425.745453 
	C255.297409,415.693420 272.990936,405.838287 290.572571,395.787537 
	C312.621704,383.182983 334.580872,370.421082 356.629211,357.815155 
	C374.210022,347.763519 391.902771,337.907684 409.480530,327.850769 
	C437.113251,312.041077 464.690887,296.135101 492.292084,280.270386 
	C497.611298,277.212982 502.931641,274.157593 508.497070,270.960175 
	C498.143616,265.073944 488.377014,259.513153 478.602661,253.966080 
	C458.613342,242.621872 438.583008,231.349274 418.637024,219.929367 
	C391.988953,204.672226 365.439758,189.242294 338.782684,174.000961 
	C316.460938,161.238373 294.002533,148.714828 271.682373,135.949448 
	C245.026184,120.704193 218.488693,105.251419 191.832504,90.006149 
	C169.512375,77.240753 147.056137,64.713402 124.731445,51.955929 
	C96.948204,36.079155 69.229958,20.088438 41.527493,4.071099 
	C40.452480,3.449538 39.832180,2.041544 39.000000,1.000000 
z"/>
<path fill="#FFFFFF" opacity="1.000000" stroke="none" 
	d="
M38.583336,1.000000 
	C39.832180,2.041544 40.452480,3.449538 41.527493,4.071099 
	C69.229958,20.088438 96.948204,36.079155 124.731445,51.955929 
	C147.056137,64.713402 169.512375,77.240753 191.832504,90.006149 
	C218.488693,105.251419 245.026184,120.704193 271.682373,135.949448 
	C294.002533,148.714828 316.460938,161.238373 338.782684,174.000961 
	C365.439758,189.242294 391.988953,204.672226 418.637024,219.929367 
	C438.583008,231.349274 458.613342,242.621872 478.602661,253.966080 
	C488.377014,259.513153 498.143616,265.073944 508.497070,270.960175 
	C502.931641,274.157593 497.611298,277.212982 492.292084,280.270386 
	C464.690887,296.135101 437.113251,312.041077 409.480530,327.850769 
	C391.902771,337.907684 374.210022,347.763519 356.629211,357.815155 
	C334.580872,370.421082 312.621704,383.182983 290.572571,395.787537 
	C272.990936,405.838287 255.297409,415.693420 237.716476,425.745453 
	C215.668716,438.351349 193.717789,451.126709 171.663651,463.721313 
	C154.220535,473.682709 136.641113,483.405457 119.201546,493.373047 
	C99.382607,504.700531 79.668503,516.211304 59.872467,527.579102 
	C54.163815,530.857300 48.298065,533.861328 42.574356,537.114258 
	C41.056828,537.976685 39.799244,539.296570 38.711151,540.703186 
	C37.611111,541.000000 36.222221,541.000000 34.416664,540.531372 
	C34.000000,360.375122 34.000000,180.687561 34.000000,1.000000 
	C35.388889,1.000000 36.777779,1.000000 38.583336,1.000000 
z"/>
<path fill="#000000" opacity="1.000000" stroke="none" 
	d="
M33.531342,1.000000 
	C34.000000,180.687561 34.000000,360.375122 34.000000,540.531372 
	C23.007946,541.000000 12.015892,541.000000 1.042866,541.000000 
	C1.042866,361.000000 1.042866,181.000000 1.042866,1.000000 
	C11.744717,1.000000 22.403700,1.000000 33.531342,1.000000 
z"/>
</svg>